{
    "asset" : {
        "generator" : "Khronos glTF Blender I/O v1.7.33",
        "version" : "2.0"
    },
    "scene" : 0,
    "scenes" : [
        {
            "name" : "Scene",
            "nodes" : [
                0,
                1,
                2,
                3,
                4
            ]
        }
    ],
    "nodes" : [
        {
            "mesh" : 0,
            "name" : "FlowerPot_Cylinder",
            "rotation" : [
                0.7071068286895752,
                0,
                0,
                0.7071067094802856
            ]
        },
        {
            "mesh" : 1,
            "name" : "Plant.001_Circle.005",
            "rotation" : [
                0.7071068286895752,
                0,
                0,
                0.7071067094802856
            ]
        },
        {
            "mesh" : 2,
            "name" : "Plant.000_Circle.006",
            "rotation" : [
                0.7071068286895752,
                0,
                0,
                0.7071067094802856
            ]
        },
        {
            "mesh" : 3,
            "name" : "Plant.002_Circle.007",
            "rotation" : [
                0.7071068286895752,
                0,
                0,
                0.7071067094802856
            ]
        },
        {
            "mesh" : 4,
            "name" : "Cercle_Cercle.002",
            "rotation" : [
                0.7071068286895752,
                0,
                0,
                0.7071067094802856
            ]
        }
    ],
    "materials" : [
        {
            "doubleSided" : true,
            "name" : "pot",
            "pbrMetallicRoughness" : {
                "baseColorFactor" : [
                    0.27383100986480713,
                    0.036389999091625214,
                    0.0027260000351816416,
                    1
                ],
                "metallicFactor" : 0,
                "roughnessFactor" : 0.5
            }
        },
        {
            "doubleSided" : true,
            "name" : "plant",
            "pbrMetallicRoughness" : {
                "baseColorFactor" : [
                    0.0295570008456707,
                    0.27467700839042664,
                    0.0033470001071691513,
                    1
                ],
                "metallicFactor" : 0,
                "roughnessFactor" : 0.5
            }
        },
        {
            "doubleSided" : true,
            "name" : "dirt",
            "pbrMetallicRoughness" : {
                "baseColorFactor" : [
                    0.035218000411987305,
                    0.010455000214278698,
                    0.002002999885007739,
                    1
                ],
                "metallicFactor" : 0,
                "roughnessFactor" : 0.5
            }
        }
    ],
    "meshes" : [
        {
            "name" : "FlowerPot_Cylinder",
            "primitives" : [
                {
                    "attributes" : {
                        "POSITION" : 0,
                        "NORMAL" : 1,
                        "TEXCOORD_0" : 2
                    },
                    "indices" : 3,
                    "material" : 0
                }
            ]
        },
        {
            "name" : "Plant.001_Circle.005",
            "primitives" : [
                {
                    "attributes" : {
                        "POSITION" : 4,
                        "NORMAL" : 5,
                        "TEXCOORD_0" : 6
                    },
                    "indices" : 7,
                    "material" : 1
                }
            ]
        },
        {
            "name" : "Plant.000_Circle.006",
            "primitives" : [
                {
                    "attributes" : {
                        "POSITION" : 8,
                        "NORMAL" : 9,
                        "TEXCOORD_0" : 10
                    },
                    "indices" : 11,
                    "material" : 1
                }
            ]
        },
        {
            "name" : "Plant.002_Circle.007",
            "primitives" : [
                {
                    "attributes" : {
                        "POSITION" : 12,
                        "NORMAL" : 13,
                        "TEXCOORD_0" : 14
                    },
                    "indices" : 15,
                    "material" : 1
                }
            ]
        },
        {
            "name" : "Cercle_Cercle.002",
            "primitives" : [
                {
                    "attributes" : {
                        "POSITION" : 16,
                        "NORMAL" : 17,
                        "TEXCOORD_0" : 18
                    },
                    "indices" : 19,
                    "material" : 2
                }
            ]
        }
    ],
    "accessors" : [
        {
            "bufferView" : 0,
            "componentType" : 5126,
            "count" : 1224,
            "max" : [
                1.0534919500350952,
                1.0244810581207275,
                -0.8920999765396118
            ],
            "min" : [
                -0.9833909869194031,
                -1.014538049697876,
                -2.6516339778900146
            ],
            "type" : "VEC3"
        },
        {
            "bufferView" : 1,
            "componentType" : 5126,
            "count" : 1224,
            "type" : "VEC3"
        },
        {
            "bufferView" : 2,
            "componentType" : 5126,
            "count" : 1224,
            "type" : "VEC2"
        },
        {
            "bufferView" : 3,
            "componentType" : 5123,
            "count" : 1242,
            "type" : "SCALAR"
        },
        {
            "bufferView" : 4,
            "componentType" : 5126,
            "count" : 74,
            "max" : [
                1.6204750537872314,
                0.42941200733184814,
                -1.8808209896087646
            ],
            "min" : [
                0.14676600694656372,
                -0.367792010307312,
                -3.3622429370880127
            ],
            "type" : "VEC3"
        },
        {
            "bufferView" : 5,
            "componentType" : 5126,
            "count" : 74,
            "type" : "VEC3"
        },
        {
            "bufferView" : 6,
            "componentType" : 5126,
            "count" : 74,
            "type" : "VEC2"
        },
        {
            "bufferView" : 7,
            "componentType" : 5123,
            "count" : 180,
            "type" : "SCALAR"
        },
        {
            "bufferView" : 8,
            "componentType" : 5126,
            "count" : 65,
            "max" : [
                0.4799570143222809,
                -0.19036699831485748,
                -1.9919209480285645
            ],
            "min" : [
                -0.33927199244499207,
                -1.379729986190796,
                -3.3639509677886963
            ],
            "type" : "VEC3"
        },
        {
            "bufferView" : 9,
            "componentType" : 5126,
            "count" : 65,
            "type" : "VEC3"
        },
        {
            "bufferView" : 10,
            "componentType" : 5126,
            "count" : 65,
            "type" : "VEC2"
        },
        {
            "bufferView" : 11,
            "componentType" : 5123,
            "count" : 159,
            "type" : "SCALAR"
        },
        {
            "bufferView" : 12,
            "componentType" : 5126,
            "count" : 67,
            "max" : [
                0.6169430017471313,
                1.2163770198822021,
                -1.9948450326919556
            ],
            "min" : [
                -0.16593199968338013,
                0.15042799711227417,
                -3.567718029022217
            ],
            "type" : "VEC3"
        },
        {
            "bufferView" : 13,
            "componentType" : 5126,
            "count" : 67,
            "type" : "VEC3"
        },
        {
            "bufferView" : 14,
            "componentType" : 5126,
            "count" : 67,
            "type" : "VEC2"
        },
        {
            "bufferView" : 15,
            "componentType" : 5123,
            "count" : 168,
            "type" : "SCALAR"
        },
        {
            "bufferView" : 16,
            "componentType" : 5126,
            "count" : 84,
            "max" : [
                0.9304320216178894,
                0.9399999976158142,
                -2
            ],
            "min" : [
                -0.9304320216178894,
                -0.9399999976158142,
                -2
            ],
            "type" : "VEC3"
        },
        {
            "bufferView" : 17,
            "componentType" : 5126,
            "count" : 84,
            "type" : "VEC3"
        },
        {
            "bufferView" : 18,
            "componentType" : 5126,
            "count" : 84,
            "type" : "VEC2"
        },
        {
            "bufferView" : 19,
            "componentType" : 5123,
            "count" : 132,
            "type" : "SCALAR"
        }
    ],
    "bufferViews" : [
        {
            "buffer" : 0,
            "byteLength" : 14688,
            "byteOffset" : 0
        },
        {
            "buffer" : 0,
            "byteLength" : 14688,
            "byteOffset" : 14688
        },
        {
            "buffer" : 0,
            "byteLength" : 9792,
            "byteOffset" : 29376
        },
        {
            "buffer" : 0,
            "byteLength" : 2484,
            "byteOffset" : 39168
        },
        {
            "buffer" : 0,
            "byteLength" : 888,
            "byteOffset" : 41652
        },
        {
            "buffer" : 0,
            "byteLength" : 888,
            "byteOffset" : 42540
        },
        {
            "buffer" : 0,
            "byteLength" : 592,
            "byteOffset" : 43428
        },
        {
            "buffer" : 0,
            "byteLength" : 360,
            "byteOffset" : 44020
        },
        {
            "buffer" : 0,
            "byteLength" : 780,
            "byteOffset" : 44380
        },
        {
            "buffer" : 0,
            "byteLength" : 780,
            "byteOffset" : 45160
        },
        {
            "buffer" : 0,
            "byteLength" : 520,
            "byteOffset" : 45940
        },
        {
            "buffer" : 0,
            "byteLength" : 318,
            "byteOffset" : 46460
        },
        {
            "buffer" : 0,
            "byteLength" : 804,
            "byteOffset" : 46780
        },
        {
            "buffer" : 0,
            "byteLength" : 804,
            "byteOffset" : 47584
        },
        {
            "buffer" : 0,
            "byteLength" : 536,
            "byteOffset" : 48388
        },
        {
            "buffer" : 0,
            "byteLength" : 336,
            "byteOffset" : 48924
        },
        {
            "buffer" : 0,
            "byteLength" : 1008,
            "byteOffset" : 49260
        },
        {
            "buffer" : 0,
            "byteLength" : 1008,
            "byteOffset" : 50268
        },
        {
            "buffer" : 0,
            "byteLength" : 672,
            "byteOffset" : 51276
        },
        {
            "buffer" : 0,
            "byteLength" : 264,
            "byteOffset" : 51948
        }
    ],
    "buffers" : [
        {
            "byteLength" : 52212,
            "uri" : "data:application/octet-stream;base64,"
        }
    ]
}
