{
    "asset" : {
        "generator" : "Khronos glTF Blender I/O v1.7.33",
        "version" : "2.0"
    },
    "scene" : 0,
    "scenes" : [
        {
            "name" : "Scene",
            "nodes" : [
                6
            ]
        }
    ],
    "nodes" : [
        {
            "mesh" : 0,
            "name" : "PC_Monitor_PC_Monitor_0",
            "rotation" : [
                0,
                0,
                0.10651268064975739,
                0.9943113327026367
            ],
            "translation" : [
                -0.23637059330940247,
                -0.48907509446144104,
                0
            ]
        },
        {
            "mesh" : 1,
            "name" : "PC_Monitor_PC_Screen_0",
            "rotation" : [
                0,
                0,
                0.10651268064975739,
                0.9943113327026367
            ],
            "translation" : [
                -0.23637059330940247,
                -0.48907509446144104,
                0
            ]
        },
        {
            "children" : [
                0,
                1
            ],
            "name" : "PC_Monitor",
            "rotation" : [
                -0.7071068286895752,
                0,
                0,
                0.7071067094802856
            ],
            "scale" : [
                100,
                100,
                100
            ]
        },
        {
            "children" : [
                2
            ],
            "name" : "RootNode"
        },
        {
            "children" : [
                3
            ],
            "name" : "50a2fa0af02547dfbe87cc1b2d43bcf1.fbx",
            "rotation" : [
                0.7071068286895752,
                0,
                0,
                0.7071068286895752
            ]
        },
        {
            "children" : [
                4
            ],
            "name" : "RootNode (model correction matrix)"
        },
        {
            "children" : [
                5
            ],
            "name" : "Bureau",
            "rotation" : [
                -0.7071068286895752,
                0,
                0,
                0.7071068286895752
            ],
            "scale" : [
                0.09450739622116089,
                0.09450739622116089,
                0.09450739622116089
            ]
        }
    ],
    "materials" : [
        {
            "doubleSided" : true,
            "name" : "PC_Monitor",
            "pbrMetallicRoughness" : {
                "baseColorTexture" : {
                    "index" : 0
                },
                "metallicFactor" : 0,
                "roughnessFactor" : 0.6968368887901306
            }
        },
        {
            "doubleSided" : true,
            "name" : "PC_Screen",
            "pbrMetallicRoughness" : {
                "baseColorTexture" : {
                    "index" : 1
                },
                "metallicFactor" : 0,
                "roughnessFactor" : 0.36756861209869385
            }
        }
    ],
    "meshes" : [
        {
            "name" : "PC_Monitor_PC_Monitor_0",
            "primitives" : [
                {
                    "attributes" : {
                        "POSITION" : 0,
                        "NORMAL" : 1,
                        "TEXCOORD_0" : 2
                    },
                    "indices" : 3,
                    "material" : 0
                }
            ]
        },
        {
            "name" : "PC_Monitor_PC_Screen_0",
            "primitives" : [
                {
                    "attributes" : {
                        "POSITION" : 4,
                        "NORMAL" : 5,
                        "TEXCOORD_0" : 6
                    },
                    "indices" : 7,
                    "material" : 1
                }
            ]
        }
    ],
    "textures" : [
        {
            "sampler" : 0,
            "source" : 0
        },
        {
            "sampler" : 0,
            "source" : 1
        }
    ],
    "images" : [
        {
            "bufferView" : 4,
            "mimeType" : "image/jpeg",
            "name" : "PC_Monitor_baseColor"
        },
        {
            "bufferView" : 9,
            "mimeType" : "image/jpeg",
            "name" : "PC_Screen_baseColor"
        }
    ],
    "accessors" : [
        {
            "bufferView" : 0,
            "componentType" : 5126,
            "count" : 741,
            "max" : [
                -0.3340268135070801,
                0.6790665984153748,
                3.2401559352874756
            ],
            "min" : [
                -0.884372353553772,
                -1.0043928623199463,
                2.043287754058838
            ],
            "type" : "VEC3"
        },
        {
            "bufferView" : 1,
            "componentType" : 5126,
            "count" : 741,
            "type" : "VEC3"
        },
        {
            "bufferView" : 2,
            "componentType" : 5126,
            "count" : 741,
            "type" : "VEC2"
        },
        {
            "bufferView" : 3,
            "componentType" : 5123,
            "count" : 852,
            "type" : "SCALAR"
        },
        {
            "bufferView" : 5,
            "componentType" : 5126,
            "count" : 32,
            "max" : [
                -0.5806780457496643,
                0.6109445095062256,
                3.17706561088562
            ],
            "min" : [
                -0.5810785889625549,
                -0.9362708330154419,
                2.3607916831970215
            ],
            "type" : "VEC3"
        },
        {
            "bufferView" : 6,
            "componentType" : 5126,
            "count" : 32,
            "type" : "VEC3"
        },
        {
            "bufferView" : 7,
            "componentType" : 5126,
            "count" : 32,
            "type" : "VEC2"
        },
        {
            "bufferView" : 8,
            "componentType" : 5123,
            "count" : 36,
            "type" : "SCALAR"
        }
    ],
    "bufferViews" : [
        {
            "buffer" : 0,
            "byteLength" : 8892,
            "byteOffset" : 0
        },
        {
            "buffer" : 0,
            "byteLength" : 8892,
            "byteOffset" : 8892
        },
        {
            "buffer" : 0,
            "byteLength" : 5928,
            "byteOffset" : 17784
        },
        {
            "buffer" : 0,
            "byteLength" : 1704,
            "byteOffset" : 23712
        },
        {
            "buffer" : 0,
            "byteLength" : 41111,
            "byteOffset" : 25416
        },
        {
            "buffer" : 0,
            "byteLength" : 384,
            "byteOffset" : 66528
        },
        {
            "buffer" : 0,
            "byteLength" : 384,
            "byteOffset" : 66912
        },
        {
            "buffer" : 0,
            "byteLength" : 256,
            "byteOffset" : 67296
        },
        {
            "buffer" : 0,
            "byteLength" : 72,
            "byteOffset" : 67552
        },
        {
            "buffer" : 0,
            "byteLength" : 41111,
            "byteOffset" : 67624
        }
    ],
    "samplers" : [
        {
            "magFilter" : 9729,
            "minFilter" : 9987
        }
    ],
    "buffers" : [
        {
            "byteLength" : 108736,
            "uri" : "data:application/octet-stream;base64,"
        }
    ]
}
