{
    "asset" : {
        "generator" : "Khronos glTF Blender I/O v1.7.33",
        "version" : "2.0"
    },
    "scene" : 0,
    "scenes" : [
        {
            "name" : "Scene",
            "nodes" : [
                5
            ]
        }
    ],
    "nodes" : [
        {
            "mesh" : 0,
            "name" : "Notebook_Notebook_0"
        },
        {
            "children" : [
                0
            ],
            "name" : "Notebook",
            "rotation" : [
                -0.7071068286895752,
                0,
                0,
                0.7071067094802856
            ],
            "scale" : [
                100,
                100,
                100
            ]
        },
        {
            "children" : [
                1
            ],
            "name" : "RootNode"
        },
        {
            "children" : [
                2
            ],
            "name" : "50a2fa0af02547dfbe87cc1b2d43bcf1.fbx",
            "rotation" : [
                0.7071068286895752,
                0,
                0,
                0.7071068286895752
            ]
        },
        {
            "children" : [
                3
            ],
            "name" : "RootNode (model correction matrix)"
        },
        {
            "children" : [
                4
            ],
            "name" : "Bureau",
            "rotation" : [
                -0.7071068286895752,
                0,
                0,
                0.7071068286895752
            ],
            "scale" : [
                0.09450739622116089,
                0.09450739622116089,
                0.09450739622116089
            ]
        }
    ],
    "materials" : [
        {
            "doubleSided" : true,
            "name" : "Notebook",
            "pbrMetallicRoughness" : {
                "baseColorTexture" : {
                    "index" : 0
                },
                "metallicFactor" : 0,
                "roughnessFactor" : 0.5809832215309143
            }
        }
    ],
    "meshes" : [
        {
            "name" : "Notebook_Notebook_0",
            "primitives" : [
                {
                    "attributes" : {
                        "POSITION" : 0,
                        "NORMAL" : 1,
                        "TEXCOORD_0" : 2
                    },
                    "indices" : 3,
                    "material" : 0
                }
            ]
        }
    ],
    "textures" : [
        {
            "sampler" : 0,
            "source" : 0
        }
    ],
    "images" : [
        {
            "bufferView" : 4,
            "mimeType" : "image/jpeg",
            "name" : "Notebook_baseColor"
        }
    ],
    "accessors" : [
        {
            "bufferView" : 0,
            "componentType" : 5126,
            "count" : 3701,
            "max" : [
                0.23196706175804138,
                -1.5428898334503174,
                2.095252513885498
            ],
            "min" : [
                -0.453641414642334,
                -2.306708335876465,
                2.048473596572876
            ],
            "type" : "VEC3"
        },
        {
            "bufferView" : 1,
            "componentType" : 5126,
            "count" : 3701,
            "type" : "VEC3"
        },
        {
            "bufferView" : 2,
            "componentType" : 5126,
            "count" : 3701,
            "type" : "VEC2"
        },
        {
            "bufferView" : 3,
            "componentType" : 5123,
            "count" : 3984,
            "type" : "SCALAR"
        }
    ],
    "bufferViews" : [
        {
            "buffer" : 0,
            "byteLength" : 44412,
            "byteOffset" : 0
        },
        {
            "buffer" : 0,
            "byteLength" : 44412,
            "byteOffset" : 44412
        },
        {
            "buffer" : 0,
            "byteLength" : 29608,
            "byteOffset" : 88824
        },
        {
            "buffer" : 0,
            "byteLength" : 7968,
            "byteOffset" : 118432
        },
        {
            "buffer" : 0,
            "byteLength" : 41111,
            "byteOffset" : 126400
        }
    ],
    "samplers" : [
        {
            "magFilter" : 9729,
            "minFilter" : 9987
        }
    ],
    "buffers" : [
        {
            "byteLength" : 167512,
            "uri" : "data:application/octet-stream;base64,"
        }
    ]
}
