{
    "asset" : {
        "generator" : "Khronos glTF Blender I/O v1.7.33",
        "version" : "2.0"
    },
    "scene" : 0,
    "scenes" : [
        {
            "name" : "Scene",
            "nodes" : [
                0,
                1,
                2
            ]
        }
    ],
    "nodes" : [
        {
            "mesh" : 0,
            "name" : "phonecase",
            "rotation" : [
                0,
                0,
                -0.7071068286895752,
                0.7071068286895752
            ],
            "scale" : [
                2,
                1,
                1
            ]
        },
        {
            "mesh" : 1,
            "name" : "screen",
            "rotation" : [
                0,
                0,
                -0.7071068286895752,
                0.7071068286895752
            ],
            "scale" : [
                2,
                1,
                1
            ]
        },
        {
            "mesh" : 2,
            "name" : "button",
            "rotation" : [
                0,
                0,
                -0.7071068286895752,
                0.7071068286895752
            ],
            "scale" : [
                2,
                1,
                1
            ]
        }
    ],
    "meshes" : [
        {
            "name" : "Plan.001",
            "primitives" : [
                {
                    "attributes" : {
                        "POSITION" : 0,
                        "NORMAL" : 1,
                        "TEXCOORD_0" : 2
                    },
                    "indices" : 3
                }
            ]
        },
        {
            "name" : "Plan.002",
            "primitives" : [
                {
                    "attributes" : {
                        "POSITION" : 4,
                        "NORMAL" : 5,
                        "TEXCOORD_0" : 6
                    },
                    "indices" : 7
                }
            ]
        },
        {
            "name" : "Plan.003",
            "primitives" : [
                {
                    "attributes" : {
                        "POSITION" : 8,
                        "NORMAL" : 9,
                        "TEXCOORD_0" : 10
                    },
                    "indices" : 11
                }
            ]
        }
    ],
    "accessors" : [
        {
            "bufferView" : 0,
            "componentType" : 5126,
            "count" : 156,
            "max" : [
                1,
                0,
                1
            ],
            "min" : [
                -1,
                -0.18613654375076294,
                -1
            ],
            "type" : "VEC3"
        },
        {
            "bufferView" : 1,
            "componentType" : 5126,
            "count" : 156,
            "type" : "VEC3"
        },
        {
            "bufferView" : 2,
            "componentType" : 5126,
            "count" : 156,
            "type" : "VEC2"
        },
        {
            "bufferView" : 3,
            "componentType" : 5123,
            "count" : 246,
            "type" : "SCALAR"
        },
        {
            "bufferView" : 4,
            "componentType" : 5126,
            "count" : 12,
            "max" : [
                0.9063053131103516,
                -0.13873285055160522,
                0.9283766150474548
            ],
            "min" : [
                -0.9608825445175171,
                -0.13873285055160522,
                -0.9388112425804138
            ],
            "type" : "VEC3"
        },
        {
            "bufferView" : 5,
            "componentType" : 5126,
            "count" : 12,
            "type" : "VEC3"
        },
        {
            "bufferView" : 6,
            "componentType" : 5126,
            "count" : 12,
            "type" : "VEC2"
        },
        {
            "bufferView" : 7,
            "componentType" : 5123,
            "count" : 30,
            "type" : "SCALAR"
        },
        {
            "bufferView" : 8,
            "componentType" : 5126,
            "count" : 20,
            "max" : [
                -0.6615756154060364,
                -0.03069394826889038,
                1.011401891708374
            ],
            "min" : [
                -0.8354606032371521,
                -0.15947192907333374,
                1.000190258026123
            ],
            "type" : "VEC3"
        },
        {
            "bufferView" : 9,
            "componentType" : 5126,
            "count" : 20,
            "type" : "VEC3"
        },
        {
            "bufferView" : 10,
            "componentType" : 5126,
            "count" : 20,
            "type" : "VEC2"
        },
        {
            "bufferView" : 11,
            "componentType" : 5123,
            "count" : 30,
            "type" : "SCALAR"
        }
    ],
    "bufferViews" : [
        {
            "buffer" : 0,
            "byteLength" : 1872,
            "byteOffset" : 0
        },
        {
            "buffer" : 0,
            "byteLength" : 1872,
            "byteOffset" : 1872
        },
        {
            "buffer" : 0,
            "byteLength" : 1248,
            "byteOffset" : 3744
        },
        {
            "buffer" : 0,
            "byteLength" : 492,
            "byteOffset" : 4992
        },
        {
            "buffer" : 0,
            "byteLength" : 144,
            "byteOffset" : 5484
        },
        {
            "buffer" : 0,
            "byteLength" : 144,
            "byteOffset" : 5628
        },
        {
            "buffer" : 0,
            "byteLength" : 96,
            "byteOffset" : 5772
        },
        {
            "buffer" : 0,
            "byteLength" : 60,
            "byteOffset" : 5868
        },
        {
            "buffer" : 0,
            "byteLength" : 240,
            "byteOffset" : 5928
        },
        {
            "buffer" : 0,
            "byteLength" : 240,
            "byteOffset" : 6168
        },
        {
            "buffer" : 0,
            "byteLength" : 160,
            "byteOffset" : 6408
        },
        {
            "buffer" : 0,
            "byteLength" : 60,
            "byteOffset" : 6568
        }
    ],
    "buffers" : [
        {
            "byteLength" : 6628,
            "uri" : "data:application/octet-stream;base64,"
        }
    ]
}
