{
    "asset" : {
        "generator" : "Khronos glTF Blender I/O v1.7.33",
        "version" : "2.0"
    },
    "scene" : 0,
    "scenes" : [
        {
            "name" : "Scene",
            "nodes" : [
                6
            ]
        }
    ],
    "nodes" : [
        {
            "mesh" : 0,
            "name" : "Cell_phone_Cell phone_0",
            "rotation" : [
                0,
                0,
                -0.22453849017620087,
                0.9744652509689331
            ],
            "translation" : [
                -0.910641074180603,
                0.03828053921461105,
                0
            ]
        },
        {
            "mesh" : 1,
            "name" : "Cell_phone_Cell_screen_0",
            "rotation" : [
                0,
                0,
                -0.22453849017620087,
                0.9744652509689331
            ],
            "translation" : [
                -0.910641074180603,
                0.03828053921461105,
                0
            ]
        },
        {
            "children" : [
                0,
                1
            ],
            "name" : "Cell_phone",
            "rotation" : [
                -0.7071068286895752,
                0,
                0,
                0.7071067094802856
            ],
            "scale" : [
                100,
                100,
                100
            ]
        },
        {
            "children" : [
                2
            ],
            "name" : "RootNode"
        },
        {
            "children" : [
                3
            ],
            "name" : "50a2fa0af02547dfbe87cc1b2d43bcf1.fbx",
            "rotation" : [
                0.7071068286895752,
                0,
                0,
                0.7071068286895752
            ]
        },
        {
            "children" : [
                4
            ],
            "name" : "RootNode (model correction matrix)"
        },
        {
            "children" : [
                5
            ],
            "name" : "Bureau",
            "rotation" : [
                -0.7071068286895752,
                0,
                0,
                0.7071068286895752
            ],
            "scale" : [
                0.09450739622116089,
                0.09450739622116089,
                0.09450739622116089
            ]
        }
    ],
    "materials" : [
        {
            "doubleSided" : true,
            "name" : "Cell_phone",
            "pbrMetallicRoughness" : {
                "baseColorTexture" : {
                    "index" : 0
                },
                "metallicFactor" : 0,
                "roughnessFactor" : 0.2460000067949295
            }
        },
        {
            "doubleSided" : true,
            "name" : "Cell_screen",
            "pbrMetallicRoughness" : {
                "baseColorTexture" : {
                    "index" : 1
                },
                "metallicFactor" : 0,
                "roughnessFactor" : 0.12976372241973877
            }
        }
    ],
    "meshes" : [
        {
            "name" : "Cell_phone_Cell phone_0",
            "primitives" : [
                {
                    "attributes" : {
                        "POSITION" : 0,
                        "NORMAL" : 1,
                        "TEXCOORD_0" : 2
                    },
                    "indices" : 3,
                    "material" : 0
                }
            ]
        },
        {
            "name" : "Cell_phone_Cell_screen_0",
            "primitives" : [
                {
                    "attributes" : {
                        "POSITION" : 4,
                        "NORMAL" : 5,
                        "TEXCOORD_0" : 6
                    },
                    "indices" : 7,
                    "material" : 1
                }
            ]
        }
    ],
    "textures" : [
        {
            "sampler" : 0,
            "source" : 0
        },
        {
            "sampler" : 0,
            "source" : 1
        }
    ],
    "images" : [
        {
            "bufferView" : 4,
            "mimeType" : "image/jpeg",
            "name" : "Cell_phone_baseColor"
        },
        {
            "bufferView" : 9,
            "mimeType" : "image/jpeg",
            "name" : "Cell_screen_baseColor"
        }
    ],
    "accessors" : [
        {
            "bufferView" : 0,
            "componentType" : 5126,
            "count" : 521,
            "max" : [
                0.7035834789276123,
                1.7627853155136108,
                2.0706160068511963
            ],
            "min" : [
                0.3475304841995239,
                1.5099153518676758,
                2.0474956035614014
            ],
            "type" : "VEC3"
        },
        {
            "bufferView" : 1,
            "componentType" : 5126,
            "count" : 521,
            "type" : "VEC3"
        },
        {
            "bufferView" : 2,
            "componentType" : 5126,
            "count" : 521,
            "type" : "VEC2"
        },
        {
            "bufferView" : 3,
            "componentType" : 5123,
            "count" : 534,
            "type" : "SCALAR"
        },
        {
            "bufferView" : 5,
            "componentType" : 5126,
            "count" : 18,
            "max" : [
                0.6604592204093933,
                1.7443634271621704,
                2.0683631896972656
            ],
            "min" : [
                0.3556753695011139,
                1.5179970264434814,
                2.0683631896972656
            ],
            "type" : "VEC3"
        },
        {
            "bufferView" : 6,
            "componentType" : 5126,
            "count" : 18,
            "type" : "VEC3"
        },
        {
            "bufferView" : 7,
            "componentType" : 5126,
            "count" : 18,
            "type" : "VEC2"
        },
        {
            "bufferView" : 8,
            "componentType" : 5123,
            "count" : 18,
            "type" : "SCALAR"
        }
    ],
    "bufferViews" : [
        {
            "buffer" : 0,
            "byteLength" : 6252,
            "byteOffset" : 0
        },
        {
            "buffer" : 0,
            "byteLength" : 6252,
            "byteOffset" : 6252
        },
        {
            "buffer" : 0,
            "byteLength" : 4168,
            "byteOffset" : 12504
        },
        {
            "buffer" : 0,
            "byteLength" : 1068,
            "byteOffset" : 16672
        },
        {
            "buffer" : 0,
            "byteLength" : 41111,
            "byteOffset" : 17740
        },
        {
            "buffer" : 0,
            "byteLength" : 216,
            "byteOffset" : 58852
        },
        {
            "buffer" : 0,
            "byteLength" : 216,
            "byteOffset" : 59068
        },
        {
            "buffer" : 0,
            "byteLength" : 144,
            "byteOffset" : 59284
        },
        {
            "buffer" : 0,
            "byteLength" : 36,
            "byteOffset" : 59428
        },
        {
            "buffer" : 0,
            "byteLength" : 41111,
            "byteOffset" : 59464
        }
    ],
    "samplers" : [
        {
            "magFilter" : 9729,
            "minFilter" : 9987
        }
    ],
    "buffers" : [
        {
            "byteLength" : 100576,
            "uri" : "data:application/octet-stream;base64,"
        }
    ]
}
