{
    "asset" : {
        "generator" : "Khronos glTF Blender I/O v1.7.33",
        "version" : "2.0"
    },
    "scene" : 0,
    "scenes" : [
        {
            "name" : "Scene",
            "nodes" : [
                0,
                1
            ]
        }
    ],
    "nodes" : [
        {
            "mesh" : 0,
            "name" : "Sphere",
            "rotation" : [
                0.5873103737831116,
                0.39378485083580017,
                -0.39378485083580017,
                0.5873103737831116
            ],
            "scale" : [
                3.5612051486968994,
                3.5612051486968994,
                3.5612051486968994
            ],
            "translation" : [
                -4.824306011199951,
                19.25650405883789,
                -27.573192596435547
            ]
        },
        {
            "mesh" : 1,
            "name" : "Male.000_Cylinder.001",
            "rotation" : [
                0.5873103737831116,
                0.39378485083580017,
                -0.39378485083580017,
                0.5873103737831116
            ],
            "scale" : [
                3.5612051486968994,
                3.5612051486968994,
                3.5612051486968994
            ],
            "translation" : [
                -4.722555637359619,
                19.251789093017578,
                -27.90859603881836
            ]
        }
    ],
    "materials" : [
        {
            "doubleSided" : true,
            "name" : "Material.029",
            "pbrMetallicRoughness" : {
                "baseColorFactor" : [
                    0.007977999746799469,
                    0.007861999794840813,
                    0.010022000409662724,
                    1
                ],
                "metallicFactor" : 0,
                "roughnessFactor" : 0.5
            }
        },
        {
            "doubleSided" : true,
            "name" : "Material.030",
            "pbrMetallicRoughness" : {
                "baseColorFactor" : [
                    0.28829601407051086,
                    0.004127999767661095,
                    0.008348999544978142,
                    1
                ],
                "metallicFactor" : 0,
                "roughnessFactor" : 0.5
            }
        },
        {
            "doubleSided" : true,
            "name" : "Material.031",
            "pbrMetallicRoughness" : {
                "baseColorFactor" : [
                    0.2140350043773651,
                    0.2140350043773651,
                    0.2140350043773651,
                    1
                ],
                "metallicFactor" : 0,
                "roughnessFactor" : 0.5
            }
        },
        {
            "doubleSided" : true,
            "name" : "Material.032",
            "pbrMetallicRoughness" : {
                "baseColorFactor" : [
                    0.800000011920929,
                    0.800000011920929,
                    0.800000011920929,
                    1
                ],
                "metallicFactor" : 0,
                "roughnessFactor" : 0.5
            }
        },
        {
            "doubleSided" : true,
            "name" : "Material.033",
            "pbrMetallicRoughness" : {
                "baseColorFactor" : [
                    0.3185400068759918,
                    0.19304800033569336,
                    0.06372199952602386,
                    1
                ],
                "metallicFactor" : 0,
                "roughnessFactor" : 0.5
            }
        },
        {
            "doubleSided" : true,
            "name" : "Material.013",
            "pbrMetallicRoughness" : {
                "baseColorFactor" : [
                    0.8480719923973083,
                    0.3754720091819763,
                    0.23898999392986298,
                    1
                ],
                "metallicFactor" : 0,
                "roughnessFactor" : 0.5
            }
        },
        {
            "doubleSided" : true,
            "name" : "Material.014",
            "pbrMetallicRoughness" : {
                "baseColorFactor" : [
                    0.4385420083999634,
                    0.04341600090265274,
                    0.0197759997099638,
                    1
                ],
                "metallicFactor" : 0,
                "roughnessFactor" : 0.5
            }
        },
        {
            "doubleSided" : true,
            "name" : "Material.015",
            "pbrMetallicRoughness" : {
                "baseColorFactor" : [
                    0.07657899707555771,
                    0.07657899707555771,
                    0.07657899707555771,
                    1
                ],
                "metallicFactor" : 0,
                "roughnessFactor" : 0.5
            }
        },
        {
            "doubleSided" : true,
            "name" : "Material.016",
            "pbrMetallicRoughness" : {
                "baseColorFactor" : [
                    0.6324489712715149,
                    0.5710780024528503,
                    0.44928500056266785,
                    1
                ],
                "metallicFactor" : 0,
                "roughnessFactor" : 0.5
            }
        },
        {
            "doubleSided" : true,
            "name" : "Material.017",
            "pbrMetallicRoughness" : {
                "baseColorFactor" : [
                    0.03310199826955795,
                    0.02237500064074993,
                    0.018696000799536705,
                    1
                ],
                "metallicFactor" : 0,
                "roughnessFactor" : 0.5
            }
        },
        {
            "doubleSided" : true,
            "name" : "Material.018",
            "pbrMetallicRoughness" : {
                "baseColorFactor" : [
                    0.45705801248550415,
                    0.45705801248550415,
                    0.45705801248550415,
                    1
                ],
                "metallicFactor" : 0,
                "roughnessFactor" : 0.5
            }
        }
    ],
    "meshes" : [
        {
            "name" : "Sphere",
            "primitives" : [
                {
                    "attributes" : {
                        "POSITION" : 0,
                        "NORMAL" : 1
                    },
                    "indices" : 2,
                    "material" : 0
                },
                {
                    "attributes" : {
                        "POSITION" : 3,
                        "NORMAL" : 4
                    },
                    "indices" : 5,
                    "material" : 1
                },
                {
                    "attributes" : {
                        "POSITION" : 6,
                        "NORMAL" : 7
                    },
                    "indices" : 8,
                    "material" : 2
                },
                {
                    "attributes" : {
                        "POSITION" : 9,
                        "NORMAL" : 10
                    },
                    "indices" : 11,
                    "material" : 3
                },
                {
                    "attributes" : {
                        "POSITION" : 12,
                        "NORMAL" : 13
                    },
                    "indices" : 14,
                    "material" : 4
                }
            ]
        },
        {
            "name" : "Male.000_Cylinder.001",
            "primitives" : [
                {
                    "attributes" : {
                        "POSITION" : 15,
                        "NORMAL" : 16
                    },
                    "indices" : 17,
                    "material" : 5
                },
                {
                    "attributes" : {
                        "POSITION" : 18,
                        "NORMAL" : 19
                    },
                    "indices" : 20,
                    "material" : 6
                },
                {
                    "attributes" : {
                        "POSITION" : 21,
                        "NORMAL" : 22
                    },
                    "indices" : 23,
                    "material" : 7
                },
                {
                    "attributes" : {
                        "POSITION" : 24,
                        "NORMAL" : 25
                    },
                    "indices" : 26,
                    "material" : 8
                },
                {
                    "attributes" : {
                        "POSITION" : 27,
                        "NORMAL" : 28
                    },
                    "indices" : 29,
                    "material" : 9
                },
                {
                    "attributes" : {
                        "POSITION" : 30,
                        "NORMAL" : 31
                    },
                    "indices" : 32,
                    "material" : 10
                }
            ]
        }
    ],
    "accessors" : [
        {
            "bufferView" : 0,
            "componentType" : 5126,
            "count" : 491,
            "max" : [
                -1.0462640523910522,
                0.1928350031375885,
                -1.085908055305481
            ],
            "min" : [
                -1.3484909534454346,
                -0.10028699785470963,
                -1.3807339668273926
            ],
            "type" : "VEC3"
        },
        {
            "bufferView" : 1,
            "componentType" : 5126,
            "count" : 491,
            "type" : "VEC3"
        },
        {
            "bufferView" : 2,
            "componentType" : 5123,
            "count" : 597,
            "type" : "SCALAR"
        },
        {
            "bufferView" : 3,
            "componentType" : 5126,
            "count" : 139,
            "max" : [
                -1.0711630582809448,
                0.17767900228500366,
                -1.0832420587539673
            ],
            "min" : [
                -1.346567988395691,
                -0.09407000243663788,
                -1.368602991104126
            ],
            "type" : "VEC3"
        },
        {
            "bufferView" : 4,
            "componentType" : 5126,
            "count" : 139,
            "type" : "VEC3"
        },
        {
            "bufferView" : 5,
            "componentType" : 5123,
            "count" : 159,
            "type" : "SCALAR"
        },
        {
            "bufferView" : 6,
            "componentType" : 5126,
            "count" : 12,
            "max" : [
                -1.1838129758834839,
                0.1870969980955124,
                -1.248687982559204
            ],
            "min" : [
                -1.2806169986724854,
                0.14117999374866486,
                -1.3504270315170288
            ],
            "type" : "VEC3"
        },
        {
            "bufferView" : 7,
            "componentType" : 5126,
            "count" : 12,
            "type" : "VEC3"
        },
        {
            "bufferView" : 8,
            "componentType" : 5123,
            "count" : 12,
            "type" : "SCALAR"
        },
        {
            "bufferView" : 9,
            "componentType" : 5126,
            "count" : 48,
            "max" : [
                -1.0581059455871582,
                0.17468500137329102,
                -1.1570379734039307
            ],
            "min" : [
                -1.2809929847717285,
                -0.10028699785470963,
                -1.3422969579696655
            ],
            "type" : "VEC3"
        },
        {
            "bufferView" : 10,
            "componentType" : 5126,
            "count" : 48,
            "type" : "VEC3"
        },
        {
            "bufferView" : 11,
            "componentType" : 5123,
            "count" : 60,
            "type" : "SCALAR"
        },
        {
            "bufferView" : 12,
            "componentType" : 5126,
            "count" : 18,
            "max" : [
                -1.2083539962768555,
                0.189533993601799,
                -1.1640410423278809
            ],
            "min" : [
                -1.345471978187561,
                -0.0018629999831318855,
                -1.2584129571914673
            ],
            "type" : "VEC3"
        },
        {
            "bufferView" : 13,
            "componentType" : 5126,
            "count" : 18,
            "type" : "VEC3"
        },
        {
            "bufferView" : 14,
            "componentType" : 5123,
            "count" : 30,
            "type" : "SCALAR"
        },
        {
            "bufferView" : 15,
            "componentType" : 5126,
            "count" : 400,
            "max" : [
                -1.0515060424804688,
                0.21328899264335632,
                -1.0296059846878052
            ],
            "min" : [
                -1.792220950126648,
                -0.22889700531959534,
                -1.9818229675292969
            ],
            "type" : "VEC3"
        },
        {
            "bufferView" : 16,
            "componentType" : 5126,
            "count" : 400,
            "type" : "VEC3"
        },
        {
            "bufferView" : 17,
            "componentType" : 5123,
            "count" : 648,
            "type" : "SCALAR"
        },
        {
            "bufferView" : 18,
            "componentType" : 5126,
            "count" : 652,
            "max" : [
                -0.9611179828643799,
                0.2017199993133545,
                -0.060283999890089035
            ],
            "min" : [
                -1.935204029083252,
                -0.3932560086250305,
                -1.7432769536972046
            ],
            "type" : "VEC3"
        },
        {
            "bufferView" : 19,
            "componentType" : 5126,
            "count" : 652,
            "type" : "VEC3"
        },
        {
            "bufferView" : 20,
            "componentType" : 5123,
            "count" : 990,
            "type" : "SCALAR"
        },
        {
            "bufferView" : 21,
            "componentType" : 5126,
            "count" : 667,
            "max" : [
                -1.015481948852539,
                0.24375499784946442,
                -0.001028000027872622
            ],
            "min" : [
                -1.845636010169983,
                -0.24584700167179108,
                -1.5788060426712036
            ],
            "type" : "VEC3"
        },
        {
            "bufferView" : 22,
            "componentType" : 5126,
            "count" : 667,
            "type" : "VEC3"
        },
        {
            "bufferView" : 23,
            "componentType" : 5123,
            "count" : 924,
            "type" : "SCALAR"
        },
        {
            "bufferView" : 24,
            "componentType" : 5126,
            "count" : 272,
            "max" : [
                -1.2594159841537476,
                0.09994199872016907,
                -1.2576179504394531
            ],
            "min" : [
                -1.7256629467010498,
                -0.29307499527931213,
                -1.727789044380188
            ],
            "type" : "VEC3"
        },
        {
            "bufferView" : 25,
            "componentType" : 5126,
            "count" : 272,
            "type" : "VEC3"
        },
        {
            "bufferView" : 26,
            "componentType" : 5123,
            "count" : 402,
            "type" : "SCALAR"
        },
        {
            "bufferView" : 27,
            "componentType" : 5126,
            "count" : 202,
            "max" : [
                -1.3651130199432373,
                -0.013001999817788601,
                -1.7637629508972168
            ],
            "min" : [
                -1.6401050090789795,
                -0.24889099597930908,
                -2.0497169494628906
            ],
            "type" : "VEC3"
        },
        {
            "bufferView" : 28,
            "componentType" : 5126,
            "count" : 202,
            "type" : "VEC3"
        },
        {
            "bufferView" : 29,
            "componentType" : 5123,
            "count" : 294,
            "type" : "SCALAR"
        },
        {
            "bufferView" : 30,
            "componentType" : 5126,
            "count" : 62,
            "max" : [
                -1.4681340456008911,
                0.09994199872016907,
                -1.433529019355774
            ],
            "min" : [
                -1.6402809619903564,
                -0.02865299955010414,
                -1.5962469577789307
            ],
            "type" : "VEC3"
        },
        {
            "bufferView" : 31,
            "componentType" : 5126,
            "count" : 62,
            "type" : "VEC3"
        },
        {
            "bufferView" : 32,
            "componentType" : 5123,
            "count" : 84,
            "type" : "SCALAR"
        }
    ],
    "bufferViews" : [
        {
            "buffer" : 0,
            "byteLength" : 5892,
            "byteOffset" : 0
        },
        {
            "buffer" : 0,
            "byteLength" : 5892,
            "byteOffset" : 5892
        },
        {
            "buffer" : 0,
            "byteLength" : 1194,
            "byteOffset" : 11784
        },
        {
            "buffer" : 0,
            "byteLength" : 1668,
            "byteOffset" : 12980
        },
        {
            "buffer" : 0,
            "byteLength" : 1668,
            "byteOffset" : 14648
        },
        {
            "buffer" : 0,
            "byteLength" : 318,
            "byteOffset" : 16316
        },
        {
            "buffer" : 0,
            "byteLength" : 144,
            "byteOffset" : 16636
        },
        {
            "buffer" : 0,
            "byteLength" : 144,
            "byteOffset" : 16780
        },
        {
            "buffer" : 0,
            "byteLength" : 24,
            "byteOffset" : 16924
        },
        {
            "buffer" : 0,
            "byteLength" : 576,
            "byteOffset" : 16948
        },
        {
            "buffer" : 0,
            "byteLength" : 576,
            "byteOffset" : 17524
        },
        {
            "buffer" : 0,
            "byteLength" : 120,
            "byteOffset" : 18100
        },
        {
            "buffer" : 0,
            "byteLength" : 216,
            "byteOffset" : 18220
        },
        {
            "buffer" : 0,
            "byteLength" : 216,
            "byteOffset" : 18436
        },
        {
            "buffer" : 0,
            "byteLength" : 60,
            "byteOffset" : 18652
        },
        {
            "buffer" : 0,
            "byteLength" : 4800,
            "byteOffset" : 18712
        },
        {
            "buffer" : 0,
            "byteLength" : 4800,
            "byteOffset" : 23512
        },
        {
            "buffer" : 0,
            "byteLength" : 1296,
            "byteOffset" : 28312
        },
        {
            "buffer" : 0,
            "byteLength" : 7824,
            "byteOffset" : 29608
        },
        {
            "buffer" : 0,
            "byteLength" : 7824,
            "byteOffset" : 37432
        },
        {
            "buffer" : 0,
            "byteLength" : 1980,
            "byteOffset" : 45256
        },
        {
            "buffer" : 0,
            "byteLength" : 8004,
            "byteOffset" : 47236
        },
        {
            "buffer" : 0,
            "byteLength" : 8004,
            "byteOffset" : 55240
        },
        {
            "buffer" : 0,
            "byteLength" : 1848,
            "byteOffset" : 63244
        },
        {
            "buffer" : 0,
            "byteLength" : 3264,
            "byteOffset" : 65092
        },
        {
            "buffer" : 0,
            "byteLength" : 3264,
            "byteOffset" : 68356
        },
        {
            "buffer" : 0,
            "byteLength" : 804,
            "byteOffset" : 71620
        },
        {
            "buffer" : 0,
            "byteLength" : 2424,
            "byteOffset" : 72424
        },
        {
            "buffer" : 0,
            "byteLength" : 2424,
            "byteOffset" : 74848
        },
        {
            "buffer" : 0,
            "byteLength" : 588,
            "byteOffset" : 77272
        },
        {
            "buffer" : 0,
            "byteLength" : 744,
            "byteOffset" : 77860
        },
        {
            "buffer" : 0,
            "byteLength" : 744,
            "byteOffset" : 78604
        },
        {
            "buffer" : 0,
            "byteLength" : 168,
            "byteOffset" : 79348
        }
    ],
    "buffers" : [
        {
            "byteLength" : 79516,
            "uri" : "data:application/octet-stream;base64,"
        }
    ]
}
